<?xml version="1.0" encoding="UTF-8"?> <svg xmlns="http://www.w3.org/2000/svg" xmlns:xlink="http://www.w3.org/1999/xlink" fill="#fff" preserveAspectRatio="xMidYMid" viewBox="0 0 59 50"><path d="M58.285,0.462 C57.735,-0.004 56.978,-0.126 56.314,0.146 L6.503,20.589 C6.000,20.796 5.756,21.379 5.960,21.892 C6.163,22.403 6.737,22.651 7.241,22.444 L54.825,2.921 L31.221,31.228 C30.869,31.650 30.921,32.281 31.335,32.638 C31.750,32.995 32.370,32.943 32.721,32.522 L56.682,3.784 L53.480,20.129 L50.254,42.047 C50.210,42.353 50.028,42.622 49.762,42.774 C49.507,42.918 49.200,42.933 48.933,42.813 L35.521,37.451 L29.085,34.710 C28.585,34.497 28.008,34.736 27.798,35.246 C27.776,35.314 27.763,35.385 27.757,35.456 L27.733,35.456 L24.538,48.002 L19.953,31.717 L43.852,13.616 C44.157,13.412 44.326,13.053 44.291,12.683 C44.255,12.313 44.021,11.994 43.682,11.854 C43.344,11.715 42.957,11.777 42.677,12.016 L18.655,30.202 L1.340,23.075 C0.837,22.872 0.268,23.120 0.066,23.629 C-0.137,24.139 0.103,24.719 0.602,24.929 L18.010,32.091 L22.652,48.570 C22.894,49.421 23.661,50.006 24.533,50.003 L24.555,50.003 C25.030,49.994 25.485,49.808 25.834,49.480 C25.868,49.459 25.901,49.435 25.932,49.409 L35.439,39.525 L48.185,44.665 C49.004,45.018 49.938,44.965 50.713,44.521 C51.512,44.070 52.060,43.268 52.196,42.350 L55.413,20.473 L58.953,2.411 C59.101,1.686 58.844,0.937 58.285,0.462 ZM27.294,45.140 L29.371,37.002 L32.622,38.390 L33.460,38.729 L27.294,45.140 Z"></path></svg> 