<?xml version="1.0" encoding="UTF-8"?> <svg xmlns="http://www.w3.org/2000/svg" xmlns:xlink="http://www.w3.org/1999/xlink" fill="#fff" preserveAspectRatio="xMidYMid" viewBox="0 0 50.03 50"><path d="M49.810,23.001 C49.628,23.254 49.360,23.419 49.059,23.464 L49.045,23.466 C48.970,23.476 48.911,23.484 48.848,23.484 C48.269,23.484 47.781,23.074 47.687,22.509 C46.830,17.467 44.444,12.872 40.786,9.221 C37.115,5.569 32.511,3.187 27.473,2.335 C26.822,2.221 26.396,1.623 26.501,0.976 C26.556,0.666 26.727,0.396 26.982,0.214 C27.180,0.073 27.410,-0.002 27.649,-0.002 C27.717,-0.002 27.785,0.005 27.853,0.017 C33.393,0.960 38.438,3.570 42.443,7.567 C46.449,11.565 49.065,16.600 50.009,22.127 L50.009,22.129 C50.064,22.436 49.993,22.745 49.810,23.001 ZM27.259,9.320 C27.317,9.320 27.377,9.326 27.434,9.334 C30.748,9.898 33.767,11.460 36.165,13.853 C38.563,16.246 40.128,19.259 40.693,22.563 C40.786,23.138 40.406,23.680 39.851,23.770 L39.814,23.775 C39.749,23.782 39.702,23.788 39.654,23.788 C39.141,23.788 38.708,23.425 38.624,22.923 C38.127,20.037 36.762,17.410 34.676,15.329 C32.576,13.234 29.944,11.871 27.062,11.388 C26.794,11.345 26.559,11.199 26.401,10.976 C26.238,10.746 26.175,10.465 26.225,10.187 C26.315,9.685 26.750,9.320 27.259,9.320 ZM17.995,25.715 C20.784,29.135 23.701,31.787 26.914,33.823 C27.240,34.025 27.611,34.210 28.002,34.405 L28.289,34.553 C28.464,34.642 28.643,34.733 28.822,34.830 L29.085,34.971 L32.683,31.392 C33.685,30.392 34.854,29.862 36.064,29.862 C37.277,29.862 38.430,30.393 39.399,31.400 L45.286,37.296 L45.286,37.296 C46.288,38.285 46.817,39.455 46.817,40.679 C46.817,41.896 46.296,43.079 45.310,44.102 C44.919,44.511 44.493,44.933 43.929,45.470 L43.794,45.601 C43.158,46.214 42.557,46.793 42.018,47.445 L42.014,47.450 C42.002,47.462 41.988,47.478 41.973,47.498 C40.431,49.157 38.458,49.999 36.106,49.999 C35.897,49.999 35.670,49.989 35.457,49.978 C31.885,49.750 28.620,48.393 26.176,47.237 C19.783,44.153 14.178,39.774 9.518,34.220 C5.696,29.634 3.113,25.336 1.388,20.692 C0.690,18.812 -0.210,15.964 0.040,12.932 C0.202,11.097 0.946,9.507 2.250,8.206 L5.908,4.524 C6.905,3.568 8.069,3.063 9.273,3.063 C10.472,3.063 11.619,3.569 12.591,4.529 C13.288,5.172 13.962,5.856 14.585,6.498 C14.895,6.828 15.225,7.157 15.544,7.476 L18.516,10.442 C20.595,12.518 20.595,15.200 18.516,17.275 C18.373,17.419 18.229,17.564 18.086,17.710 L18.075,17.721 C17.922,17.876 17.769,18.031 17.613,18.186 L17.383,18.419 C16.668,19.143 15.929,19.892 15.142,20.611 L14.927,20.807 L15.048,21.072 C15.723,22.563 16.632,23.995 17.995,25.715 ZM13.400,19.364 L13.402,19.361 C13.411,19.353 13.419,19.346 13.425,19.340 C13.727,19.070 14.020,18.798 14.311,18.521 C14.445,18.394 14.579,18.265 14.713,18.135 C14.947,17.907 15.183,17.673 15.425,17.430 C15.538,17.317 15.652,17.201 15.768,17.084 C15.884,16.967 16.002,16.847 16.121,16.724 C16.331,16.523 16.538,16.313 16.746,16.103 L16.790,16.059 C16.875,15.974 16.961,15.886 17.048,15.800 C17.688,15.161 18.012,14.508 18.012,13.859 C18.012,13.210 17.688,12.557 17.048,11.917 L14.127,9.003 C13.977,8.848 13.827,8.696 13.677,8.545 L13.595,8.460 C13.431,8.294 13.269,8.130 13.109,7.965 C12.532,7.370 11.859,6.684 11.176,6.047 L11.143,6.014 C10.747,5.619 10.104,5.148 9.295,5.148 C8.655,5.148 7.995,5.451 7.382,6.025 L3.728,9.672 C2.770,10.628 2.248,11.748 2.132,13.099 C1.965,15.139 2.342,17.257 3.356,19.965 C4.990,24.370 7.463,28.482 11.140,32.905 C15.601,38.219 20.968,42.413 27.092,45.373 C27.374,45.507 27.667,45.643 27.970,45.781 C30.097,46.744 32.750,47.731 35.598,47.913 C35.772,47.925 35.947,47.925 36.117,47.925 C37.898,47.925 39.274,47.341 40.453,46.082 C41.108,45.312 41.821,44.613 42.495,43.972 L42.734,43.739 C43.047,43.435 43.346,43.144 43.642,42.836 C43.699,42.776 43.757,42.716 43.814,42.655 C43.872,42.595 43.924,42.535 43.976,42.475 C43.994,42.454 44.014,42.433 44.031,42.413 C44.077,42.358 44.118,42.302 44.159,42.247 C44.179,42.221 44.201,42.195 44.220,42.169 C44.254,42.121 44.282,42.073 44.313,42.024 C44.335,41.991 44.359,41.957 44.379,41.923 C44.407,41.875 44.430,41.827 44.455,41.778 C44.473,41.744 44.493,41.711 44.509,41.676 C44.532,41.625 44.550,41.575 44.570,41.525 C44.583,41.493 44.598,41.460 44.609,41.428 C44.629,41.373 44.642,41.317 44.657,41.262 C44.665,41.235 44.675,41.208 44.681,41.180 C44.695,41.117 44.704,41.055 44.713,40.992 C44.716,40.972 44.721,40.951 44.724,40.931 C44.731,40.863 44.734,40.795 44.735,40.727 C44.735,40.712 44.737,40.697 44.737,40.683 C44.737,40.607 44.731,40.530 44.722,40.455 C44.722,40.448 44.722,40.442 44.721,40.436 C44.712,40.363 44.700,40.291 44.684,40.219 C44.570,39.716 44.274,39.221 43.795,38.748 L37.880,32.847 C37.866,32.831 37.850,32.815 37.835,32.798 C37.830,32.792 37.825,32.787 37.819,32.782 C37.806,32.767 37.791,32.753 37.776,32.738 C37.767,32.729 37.759,32.720 37.749,32.711 C37.736,32.698 37.722,32.685 37.708,32.672 C37.696,32.660 37.684,32.649 37.671,32.637 C37.658,32.626 37.645,32.614 37.631,32.602 C37.616,32.589 37.602,32.575 37.586,32.561 C37.573,32.551 37.559,32.539 37.546,32.528 C37.528,32.514 37.511,32.500 37.493,32.485 C37.480,32.475 37.467,32.465 37.454,32.456 C37.434,32.440 37.414,32.425 37.393,32.409 C37.381,32.400 37.367,32.392 37.355,32.383 C37.332,32.367 37.310,32.350 37.287,32.336 C37.272,32.325 37.257,32.318 37.243,32.308 C37.220,32.293 37.197,32.279 37.173,32.264 C37.157,32.255 37.140,32.246 37.123,32.236 C37.100,32.223 37.077,32.210 37.053,32.198 C37.035,32.188 37.016,32.179 36.998,32.170 C36.974,32.159 36.951,32.146 36.927,32.135 C36.907,32.126 36.886,32.118 36.865,32.109 C36.841,32.099 36.818,32.089 36.794,32.080 C36.771,32.071 36.747,32.063 36.724,32.055 C36.701,32.047 36.679,32.038 36.655,32.031 C36.629,32.023 36.601,32.017 36.574,32.009 C36.553,32.003 36.532,31.997 36.511,31.992 C36.481,31.985 36.450,31.980 36.420,31.974 C36.400,31.970 36.380,31.965 36.360,31.962 C36.330,31.958 36.298,31.955 36.268,31.951 C36.246,31.949 36.225,31.946 36.204,31.944 C36.151,31.939 36.097,31.937 36.042,31.937 C35.231,31.937 34.560,32.437 34.140,32.856 L30.475,36.514 C30.321,36.668 29.853,37.135 29.130,37.135 C28.837,37.135 28.557,37.063 28.250,36.910 C28.242,36.906 28.234,36.901 28.217,36.889 C28.188,36.871 28.159,36.855 28.147,36.849 C27.966,36.737 27.768,36.629 27.560,36.521 C27.491,36.485 27.421,36.449 27.349,36.412 C27.254,36.364 27.157,36.316 27.058,36.266 C26.658,36.067 26.203,35.841 25.776,35.571 C23.877,34.372 22.077,32.970 20.345,31.334 C19.945,30.957 19.549,30.568 19.157,30.165 C18.966,29.969 18.776,29.772 18.587,29.570 C18.209,29.168 17.834,28.754 17.462,28.327 C17.089,27.900 16.719,27.461 16.352,27.009 L16.341,26.997 C15.585,26.039 14.954,25.156 14.421,24.308 C14.244,24.025 14.077,23.745 13.921,23.469 C13.546,22.805 13.228,22.154 12.955,21.495 L12.925,21.405 C12.699,20.691 12.692,20.072 13.400,19.364 Z"></path></svg> 